<svg width="48" height="46" viewBox="0 0 48 46" fill="none" xmlns="http://www.w3.org/2000/svg">
<path d="M0 29.0011C0 26.792 1.79086 25.0011 4 25.0011H44C46.2091 25.0011 48 26.792 48 29.0011V42.0011C48 44.2102 46.2091 46.0011 44 46.0011H4C1.79086 46.0011 0 44.2102 0 42.0011V29.0011Z" fill="url(#paint0_linear_4158_115187)"/>
<path d="M37.32 32.4211H37.51C39.28 32.8911 40.31 33.9211 40.78 35.6911V35.8811C40.78 36.0611 40.92 36.2011 41.1 36.2011C41.28 36.2011 41.42 36.0611 41.42 35.8811V35.6911C41.89 33.9211 42.92 32.8911 44.69 32.4211H44.88C45.06 32.4211 45.2 32.2811 45.2 32.1011C45.2 31.9211 45.06 31.7811 44.88 31.7811H44.69C42.92 31.3111 41.89 30.2811 41.42 28.5111V28.3211C41.42 28.1411 41.28 28.0011 41.1 28.0011C40.92 28.0011 40.78 28.1411 40.78 28.3211V28.5111C40.31 30.2811 39.28 31.3111 37.51 31.7811H37.32C37.14 31.7811 37 31.9211 37 32.1011C37 32.2811 37.14 32.4211 37.32 32.4211Z" fill="white"/>
<path d="M10.168 31.3291V41.4571C10.168 41.9051 9.992 42.0011 9.576 42.0011H8.248C7.736 42.0011 7.624 41.9531 7.624 41.4731V33.6971L5.496 34.8331C5.16 35.0091 4.92 34.9291 4.744 34.5611L4.312 33.6811C4.184 33.4091 4.264 33.1851 4.568 33.0091L7.896 31.1051C8.184 30.9451 8.392 30.8971 8.744 30.8971H9.72C10.008 30.8971 10.168 30.9931 10.168 31.3291Z" fill="white"/>
<path d="M20.781 36.4331C20.781 39.8571 19.533 42.2091 16.701 42.2091C13.869 42.2091 12.573 39.9371 12.573 36.5131C12.573 33.1211 13.997 30.6571 16.733 30.6571C19.565 30.6571 20.781 33.0411 20.781 36.4331ZM18.157 36.4171C18.157 33.5531 17.549 32.8491 16.749 32.8491C15.805 32.8491 15.197 33.7131 15.197 36.4171C15.197 39.1851 15.709 40.0011 16.701 40.0011C17.709 40.0011 18.157 39.1691 18.157 36.4171Z" fill="white"/>
<path d="M29.906 36.4331C29.906 39.8571 28.658 42.2091 25.826 42.2091C22.994 42.2091 21.698 39.9371 21.698 36.5131C21.698 33.1211 23.122 30.6571 25.858 30.6571C28.69 30.6571 29.906 33.0411 29.906 36.4331ZM27.282 36.4171C27.282 33.5531 26.674 32.8491 25.874 32.8491C24.93 32.8491 24.322 33.7131 24.322 36.4171C24.322 39.1851 24.834 40.0011 25.826 40.0011C26.834 40.0011 27.282 39.1691 27.282 36.4171Z" fill="white"/>
<path fill-rule="evenodd" clip-rule="evenodd" d="M30.625 0.000976563C35.53 0.00094986 40.4071 2.31083 44.459 6.63265C45.2145 7.43845 45.1737 8.70412 44.3679 9.45961C43.5621 10.2151 42.2965 10.1743 41.541 9.36851C38.0929 5.69084 34.22 4.00096 30.625 4.00098C27.0512 4.001 23.4716 5.66898 20.5522 9.26201C19.8557 10.1193 18.5961 10.2496 17.7388 9.55301C16.8815 8.85647 16.7512 7.59686 17.4478 6.7396C21.0284 2.33288 25.6988 0.0010035 30.625 0.000976563Z" fill="url(#paint1_linear_4158_115187)"/>
<path fill-rule="evenodd" clip-rule="evenodd" d="M30.9999 8.00108C33.8699 8.00095 36.9879 9.20798 38.6959 11.9401C39.2814 12.8767 38.9968 14.1106 38.0602 14.6961C37.1236 15.2817 35.8896 14.997 35.3041 14.0604C34.5121 12.7935 32.8801 12.001 31.0001 12.0011C29.1201 12.0012 27.4881 12.7938 26.696 14.0611C26.1105 14.9978 24.8766 15.2825 23.94 14.6971C23.0033 14.1116 22.7186 12.8777 23.304 11.9411C25.0119 9.20855 28.1299 8.00121 30.9999 8.00108Z" fill="url(#paint2_linear_4158_115187)"/>
<path d="M33 17.0011C33 18.1057 32.1046 19.0011 31 19.0011C29.8954 19.0011 29 18.1057 29 17.0011C29 15.8965 29.8954 15.0011 31 15.0011C32.1046 15.0011 33 15.8965 33 17.0011Z" fill="url(#paint3_linear_4158_115187)"/>
<defs>
<linearGradient id="paint0_linear_4158_115187" x1="6.12923" y1="-8.04276" x2="51.1874" y2="48.1583" gradientUnits="userSpaceOnUse">
<stop stop-color="#02B9A5"/>
<stop offset="1" stop-color="#01BF55"/>
</linearGradient>
<linearGradient id="paint1_linear_4158_115187" x1="6.12923" y1="-8.04276" x2="51.1874" y2="48.1583" gradientUnits="userSpaceOnUse">
<stop stop-color="#02B9A5"/>
<stop offset="1" stop-color="#01BF55"/>
</linearGradient>
<linearGradient id="paint2_linear_4158_115187" x1="6.12923" y1="-8.04276" x2="51.1874" y2="48.1583" gradientUnits="userSpaceOnUse">
<stop stop-color="#02B9A5"/>
<stop offset="1" stop-color="#01BF55"/>
</linearGradient>
<linearGradient id="paint3_linear_4158_115187" x1="6.12923" y1="-8.04276" x2="51.1874" y2="48.1583" gradientUnits="userSpaceOnUse">
<stop stop-color="#02B9A5"/>
<stop offset="1" stop-color="#01BF55"/>
</linearGradient>
</defs>
</svg>
