<svg width="32" height="32" viewBox="0 0 32 32" fill="none" xmlns="http://www.w3.org/2000/svg">
<g clip-path="url(#clip0_5207_81068)">
<path d="M0 20.6667C0 19.1939 1.19391 18 2.66667 18H29.3333C30.8061 18 32 19.1939 32 20.6667V29.3333C32 30.8061 30.8061 32 29.3333 32H2.66667C1.19391 32 0 30.8061 0 29.3333V20.6667Z" fill="url(#paint0_linear_5207_81068)"/>
<path d="M7.77067 26.9333C7.77067 28.5653 6.48 29.472 4.848 29.472C4.06933 29.472 3.312 29.2907 2.66133 28.9387C2.50133 28.8533 2.40533 28.7147 2.50133 28.4907L2.82133 27.7867C2.90667 27.5947 3.06667 27.584 3.248 27.6693C3.87733 27.9787 4.368 28.096 4.90133 28.096C5.59467 28.096 6.10667 27.6587 6.10667 27.0187C6.10667 26.6773 5.968 26.3573 5.73333 26.1547C5.424 25.888 5.01867 25.792 4.496 25.792H3.45067C3.152 25.792 3.04533 25.6213 3.04533 25.312V22.3787C3.04533 22.0267 3.184 21.9307 3.472 21.9307H7.09867C7.344 21.9307 7.46133 22.0373 7.46133 22.2827V22.9867C7.46133 23.232 7.36533 23.36 7.09867 23.36H4.73067V24.544H4.80533C6.37333 24.544 7.77067 25.2373 7.77067 26.9333Z" fill="white"/>
<path d="M13.854 25.6213C13.854 27.904 13.022 29.472 11.134 29.472C9.246 29.472 8.382 27.9573 8.382 25.6747C8.382 23.4133 9.33133 21.7707 11.1553 21.7707C13.0433 21.7707 13.854 23.36 13.854 25.6213ZM12.1047 25.6107C12.1047 23.7013 11.6993 23.232 11.166 23.232C10.5367 23.232 10.1313 23.808 10.1313 25.6107C10.1313 27.456 10.4727 28 11.134 28C11.806 28 12.1047 27.4453 12.1047 25.6107Z" fill="white"/>
<path fill-rule="evenodd" clip-rule="evenodd" d="M20.4167 1.33325C23.6867 1.33323 26.938 2.87315 29.6394 5.75437C30.143 6.29157 30.1158 7.13535 29.5786 7.63901C29.0414 8.14266 28.1976 8.11547 27.694 7.57827C25.3953 5.1265 22.8133 3.99991 20.4167 3.99992C18.0341 3.99993 15.6478 5.11192 13.7015 7.50728C13.2371 8.07878 12.3974 8.16564 11.8259 7.70128C11.2544 7.23691 11.1675 6.39717 11.6319 5.82566C14.0189 2.88785 17.1325 1.33327 20.4167 1.33325Z" fill="url(#paint1_linear_5207_81068)"/>
<path fill-rule="evenodd" clip-rule="evenodd" d="M20.6666 6.66666C22.5799 6.66657 24.6586 7.47125 25.7973 9.29265C26.1876 9.91706 25.9979 10.7397 25.3735 11.13C24.749 11.5204 23.9264 11.3306 23.5361 10.7062C23.0081 9.86159 21.9201 9.33327 20.6667 9.33332C19.4134 9.33338 18.3254 9.86179 17.7973 10.7067C17.407 11.3311 16.5844 11.5209 15.96 11.1307C15.3355 10.7404 15.1457 9.91776 15.536 9.29331C16.6746 7.47163 18.7533 6.66674 20.6666 6.66666Z" fill="url(#paint2_linear_5207_81068)"/>
<path d="M22 12.6667C22 13.403 21.403 14 20.6667 14C19.9303 14 19.3333 13.403 19.3333 12.6667C19.3333 11.9303 19.9303 11.3333 20.6667 11.3333C21.403 11.3333 22 11.9303 22 12.6667Z" fill="url(#paint3_linear_5207_81068)"/>
</g>
<defs>
<linearGradient id="paint0_linear_5207_81068" x1="4.08615" y1="-4.02924" x2="34.125" y2="33.4381" gradientUnits="userSpaceOnUse">
<stop stop-color="#FFCE99"/>
<stop offset="1" stop-color="#FF8400"/>
</linearGradient>
<linearGradient id="paint1_linear_5207_81068" x1="4.08615" y1="-4.02924" x2="34.125" y2="33.4381" gradientUnits="userSpaceOnUse">
<stop stop-color="#FFCE99"/>
<stop offset="1" stop-color="#FF8400"/>
</linearGradient>
<linearGradient id="paint2_linear_5207_81068" x1="4.08615" y1="-4.02924" x2="34.125" y2="33.4381" gradientUnits="userSpaceOnUse">
<stop stop-color="#FFCE99"/>
<stop offset="1" stop-color="#FF8400"/>
</linearGradient>
<linearGradient id="paint3_linear_5207_81068" x1="4.08615" y1="-4.02924" x2="34.125" y2="33.4381" gradientUnits="userSpaceOnUse">
<stop stop-color="#FFCE99"/>
<stop offset="1" stop-color="#FF8400"/>
</linearGradient>
<clipPath id="clip0_5207_81068">
<rect width="32" height="32" fill="white"/>
</clipPath>
</defs>
</svg>
