<?xml version="1.0" standalone="no"?>
<!DOCTYPE svg PUBLIC "-//W3C//DTD SVG 20010904//EN"
 "http://www.w3.org/TR/2001/REC-SVG-20010904/DTD/svg10.dtd">
<svg version="1.0" xmlns="http://www.w3.org/2000/svg"
 width="500.000000pt" height="500.000000pt" viewBox="0 0 500.000000 500.000000"
 preserveAspectRatio="xMidYMid meet">
<metadata>
Created by potrace 1.11, written by Peter Selinger 2001-2013
</metadata>
<g transform="translate(0.000000,500.000000) scale(0.100000,-0.100000)"
fill="#000000" stroke="none">
<path d="M2398 3278 l-3 -113 -62 -3 -63 -3 0 -74 c0 -82 -3 -78 83 -90 l47
-6 0 -328 c0 -368 5 -403 66 -470 52 -59 121 -85 224 -85 51 0 108 7 143 17
l57 18 0 89 0 90 -91 0 c-162 0 -159 -7 -159 374 l0 294 68 7 c37 3 86 8 110
11 l42 5 0 75 0 74 -110 0 -110 0 0 115 0 115 -120 0 -119 0 -3 -112z"/>
<path d="M688 3165 c-47 -12 -183 -66 -195 -79 -5 -5 28 -149 36 -158 3 -4 38
4 76 19 93 34 245 43 329 19 94 -28 166 -122 166 -219 0 -26 -3 -29 -22 -23
-151 44 -357 47 -459 7 -76 -29 -141 -89 -176 -159 -25 -50 -28 -68 -28 -147
1 -77 4 -97 27 -140 71 -137 220 -201 408 -175 94 13 147 31 207 72 23 15 44
28 46 28 2 0 10 -20 17 -45 l13 -45 99 0 99 0 -3 373 c-3 362 -4 374 -26 429
-47 116 -165 210 -303 243 -79 18 -234 18 -311 0z m365 -590 c46 -17 47 -18
47 -60 0 -132 -86 -218 -233 -232 -154 -14 -247 56 -237 177 5 56 47 103 115
128 45 17 249 8 308 -13z"/>
<path d="M1713 3165 c-161 -45 -246 -144 -246 -285 1 -71 11 -106 49 -161 39
-57 102 -95 256 -154 111 -43 150 -63 176 -90 77 -83 8 -175 -132 -175 -55 0
-211 36 -278 64 -21 9 -41 16 -46 16 -8 0 -42 -130 -42 -161 0 -10 25 -27 68
-46 213 -95 449 -89 587 15 160 121 161 364 1 469 -25 17 -95 50 -154 74 -192
76 -222 97 -222 153 0 79 74 114 205 95 42 -5 94 -17 117 -25 22 -8 46 -14 53
-14 7 0 20 37 32 88 l20 87 -29 13 c-105 46 -317 65 -415 37z"/>
<path d="M3451 3164 c-25 -9 -61 -26 -81 -39 -38 -24 -100 -89 -100 -105 0 -6
-4 -10 -10 -10 -6 0 -10 32 -10 75 l0 75 -110 0 -110 0 0 -520 0 -520 115 0
115 0 0 233 c0 265 10 377 40 445 41 91 119 149 216 159 l54 6 0 108 0 109
-37 0 c-21 -1 -58 -8 -82 -16z"/>
<path d="M3931 3164 c-129 -35 -248 -127 -308 -239 -45 -85 -63 -167 -63 -282
0 -169 44 -287 147 -391 219 -222 606 -189 780 66 54 79 83 172 90 287 16 274
-133 497 -372 560 -73 19 -202 18 -274 -1z m220 -200 c79 -23 150 -99 178
-189 53 -171 1 -353 -122 -429 -67 -41 -170 -48 -245 -16 -110 48 -175 162
-175 310 0 168 69 279 202 326 49 18 97 17 162 -2z"/>
<path d="M4505 2064 c-101 -72 -238 -132 -401 -174 -183 -48 -323 -63 -564
-63 -247 0 -335 7 -890 68 -589 65 -721 76 -1060 82 -339 6 -483 -5 -699 -53
-210 -46 -468 -145 -480 -183 -4 -16 19 -14 167 18 175 37 310 46 692 46 400
-1 506 -9 1027 -80 754 -103 955 -121 1218 -112 425 15 757 129 956 326 54 54
109 130 109 151 0 19 -25 10 -75 -26z"/>
</g>
</svg>
