<svg id="visual" viewBox="0 0 1920 400" width="1920" height="400" xmlns="http://www.w3.org/2000/svg" xmlns:xlink="http://www.w3.org/1999/xlink" version="1.1"><path d="M0 142L18.8 156.2C37.7 170.3 75.3 198.7 113 214.5C150.7 230.3 188.3 233.7 226 222.5C263.7 211.3 301.3 185.7 339 189C376.7 192.3 414.3 224.7 452 236.2C489.7 247.7 527.3 238.3 565 218.8C602.7 199.3 640.3 169.7 678 163.5C715.7 157.3 753.3 174.7 791 193C828.7 211.3 866.3 230.7 903.8 238C941.3 245.3 978.7 240.7 1016.2 228C1053.7 215.3 1091.3 194.7 1129 182.3C1166.7 170 1204.3 166 1242 160C1279.7 154 1317.3 146 1355 163.5C1392.7 181 1430.3 224 1468 223.8C1505.7 223.7 1543.3 180.3 1581 171C1618.7 161.7 1656.3 186.3 1694 206.2C1731.7 226 1769.3 241 1807 242.8C1844.7 244.7 1882.3 233.3 1901.2 227.7L1920 222L1920 401L1901.2 401C1882.3 401 1844.7 401 1807 401C1769.3 401 1731.7 401 1694 401C1656.3 401 1618.7 401 1581 401C1543.3 401 1505.7 401 1468 401C1430.3 401 1392.7 401 1355 401C1317.3 401 1279.7 401 1242 401C1204.3 401 1166.7 401 1129 401C1091.3 401 1053.7 401 1016.2 401C978.7 401 941.3 401 903.8 401C866.3 401 828.7 401 791 401C753.3 401 715.7 401 678 401C640.3 401 602.7 401 565 401C527.3 401 489.7 401 452 401C414.3 401 376.7 401 339 401C301.3 401 263.7 401 226 401C188.3 401 150.7 401 113 401C75.3 401 37.7 401 18.8 401L0 401Z" fill="#5c86e1"></path><path d="M0 314L18.8 297.2C37.7 280.3 75.3 246.7 113 228.2C150.7 209.7 188.3 206.3 226 222.7C263.7 239 301.3 275 339 293.7C376.7 312.3 414.3 313.7 452 313.7C489.7 313.7 527.3 312.3 565 312.3C602.7 312.3 640.3 313.7 678 314.8C715.7 316 753.3 317 791 302.2C828.7 287.3 866.3 256.7 903.8 254.3C941.3 252 978.7 278 1016.2 289.7C1053.7 301.3 1091.3 298.7 1129 285.7C1166.7 272.7 1204.3 249.3 1242 239.3C1279.7 229.3 1317.3 232.7 1355 236.8C1392.7 241 1430.3 246 1468 240.7C1505.7 235.3 1543.3 219.7 1581 217.8C1618.7 216 1656.3 228 1694 243.2C1731.7 258.3 1769.3 276.7 1807 271C1844.7 265.3 1882.3 235.7 1901.2 220.8L1920 206L1920 401L1901.2 401C1882.3 401 1844.7 401 1807 401C1769.3 401 1731.7 401 1694 401C1656.3 401 1618.7 401 1581 401C1543.3 401 1505.7 401 1468 401C1430.3 401 1392.7 401 1355 401C1317.3 401 1279.7 401 1242 401C1204.3 401 1166.7 401 1129 401C1091.3 401 1053.7 401 1016.2 401C978.7 401 941.3 401 903.8 401C866.3 401 828.7 401 791 401C753.3 401 715.7 401 678 401C640.3 401 602.7 401 565 401C527.3 401 489.7 401 452 401C414.3 401 376.7 401 339 401C301.3 401 263.7 401 226 401C188.3 401 150.7 401 113 401C75.3 401 37.7 401 18.8 401L0 401Z" fill="#4275e7"></path><path d="M0 320L18.8 316.5C37.7 313 75.3 306 113 301.8C150.7 297.7 188.3 296.3 226 295C263.7 293.7 301.3 292.3 339 293.7C376.7 295 414.3 299 452 304.5C489.7 310 527.3 317 565 315.5C602.7 314 640.3 304 678 304.2C715.7 304.3 753.3 314.7 791 319.5C828.7 324.3 866.3 323.7 903.8 319.7C941.3 315.7 978.7 308.3 1016.2 304.5C1053.7 300.7 1091.3 300.3 1129 305.8C1166.7 311.3 1204.3 322.7 1242 333.5C1279.7 344.3 1317.3 354.7 1355 345.8C1392.7 337 1430.3 309 1468 303.7C1505.7 298.3 1543.3 315.7 1581 329.2C1618.7 342.7 1656.3 352.3 1694 346.8C1731.7 341.3 1769.3 320.7 1807 316.2C1844.7 311.7 1882.3 323.3 1901.2 329.2L1920 335L1920 401L1901.2 401C1882.3 401 1844.7 401 1807 401C1769.3 401 1731.7 401 1694 401C1656.3 401 1618.7 401 1581 401C1543.3 401 1505.7 401 1468 401C1430.3 401 1392.7 401 1355 401C1317.3 401 1279.7 401 1242 401C1204.3 401 1166.7 401 1129 401C1091.3 401 1053.7 401 1016.2 401C978.7 401 941.3 401 903.8 401C866.3 401 828.7 401 791 401C753.3 401 715.7 401 678 401C640.3 401 602.7 401 565 401C527.3 401 489.7 401 452 401C414.3 401 376.7 401 339 401C301.3 401 263.7 401 226 401C188.3 401 150.7 401 113 401C75.3 401 37.7 401 18.8 401L0 401Z" fill="#2563eb"></path></svg>